<?xml version="1.0" encoding="UTF-8"?>
<svg version="1.1" xmlns="http://www.w3.org/2000/svg" width="16" height="16">
<path d="M0 0 C2.31243792 -0.02685412 4.6249627 -0.04632841 6.9375 -0.0625 C8.22527344 -0.07410156 9.51304688 -0.08570313 10.83984375 -0.09765625 C14 -0 14 -0 15 1 C15.23653523 3.52596259 15.42173692 6.03107207 15.5625 8.5625 C15.60568359 9.27341797 15.64886719 9.98433594 15.69335938 10.71679688 C15.79971777 12.47761912 15.90038846 14.2387832 16 16 C11.71 16 7.42 16 3 16 C3 12.37 3 8.74 3 5 C2.01 4.67 1.02 4.34 0 4 C0 2.68 0 1.36 0 0 Z M4 1 C4 3.64 4 6.28 4 9 C4.33 9 4.66 9 5 9 C5 6.69 5 4.38 5 2 C7.64 2 10.28 2 13 2 C13 1.67 13 1.34 13 1 C10.03 1 7.06 1 4 1 Z M12 7 C13 9 13 9 13 9 Z M14 13 C12.02 13.33 10.04 13.66 8 14 C8 14.33 8 14.66 8 15 C10.31 15 12.62 15 15 15 C14.67 14.34 14.34 13.68 14 13 Z " fill="#000000" transform="translate(0,0)"/>
</svg>
